<?xml version="1.0" standalone="no"?>
<!DOCTYPE svg PUBLIC "-//W3C//DTD SVG 20010904//EN"
 "http://www.w3.org/TR/2001/REC-SVG-20010904/DTD/svg10.dtd">
<svg version="1.0" xmlns="http://www.w3.org/2000/svg"
 width="1202.000000pt" height="1280.000000pt" viewBox="0 0 1202.000000 1280.000000"
 preserveAspectRatio="xMidYMid meet">
<g transform="translate(0.000000,1280.000000) scale(0.100000,-0.100000)"
fill="#000000" stroke="none">
<path d="M6210 12789 c-52 -5 -186 -15 -296 -24 -1868 -142 -3506 -1023 -4594
-2470 -578 -769 -984 -1674 -1175 -2620 -71 -350 -93 -527 -136 -1075 -24
-307 16 -872 92 -1320 256 -1508 1047 -2839 2261 -3808 1029 -820 2327 -1332
3643 -1437 105 -8 246 -19 315 -25 159 -13 350 -13 510 0 69 5 213 17 320 26
808 65 1596 286 2320 648 315 158 562 312 855 533 845 638 1439 1371 1600
1974 31 118 51 257 65 464 6 88 15 221 20 295 13 174 12 551 -1 750 -5 85 -12
513 -14 950 -3 453 -9 844 -15 910 -27 287 -99 509 -223 695 -92 138 -293 297
-444 352 -125 45 -376 77 -828 105 -282 17 -3687 16 -3858 -2 -390 -40 -639
-142 -828 -337 -111 -114 -172 -216 -233 -391 -78 -224 -98 -414 -99 -947 -1
-414 8 -574 43 -780 92 -539 352 -817 863 -920 199 -40 343 -47 747 -40 259 5
390 4 450 -5 197 -27 196 -94 -3 -189 -600 -285 -1569 -275 -2151 24 -487 250
-875 633 -1130 1115 -287 545 -366 1172 -221 1751 222 881 937 1573 1830 1774
178 40 322 55 521 55 340 0 613 -55 922 -187 174 -74 296 -149 567 -349 202
-148 303 -214 413 -269 188 -93 378 -128 572 -107 339 38 520 149 1440 886
567 455 718 605 840 839 133 254 151 500 59 802 -34 110 -81 209 -142 300
-196 293 -662 704 -1192 1051 -856 561 -1837 899 -2840 979 -104 8 -246 19
-315 25 -142 12 -389 11 -530 -1z m305 -569 c13 -5 -22 -9 -96 -9 -64 -1 -171
-4 -237 -8 -88 -4 -122 -3 -122 5 0 8 62 12 213 15 116 1 214 3 217 4 3 1 14
-2 25 -7z m1973 -365 c145 -52 278 -103 295 -114 32 -21 32 -21 6 -21 -14 0
-29 4 -35 9 -5 5 -114 46 -241 91 -128 46 -247 93 -265 106 -17 13 -30 24 -27
24 2 0 123 -43 267 -95z m-1823 -113 c-3 -3 -11 0 -18 7 -9 10 -8 11 6 5 10
-3 15 -9 12 -12z m2458 -161 c203 -85 428 -223 522 -320 54 -57 25 -51 -44 8
-115 100 -338 229 -526 306 -57 23 -111 50 -120 59 -10 9 -44 30 -76 47 -95
47 -68 43 34 -6 50 -24 145 -66 210 -94z m668 -411 c46 -28 91 -58 99 -67 8
-9 0 -6 -17 6 -18 12 -68 42 -110 66 -43 25 -73 45 -67 45 6 0 49 -23 95 -50z
m271 -198 c13 -14 -7 -1 -44 28 -38 30 -68 55 -68 57 0 8 90 -60 112 -85z
m228 -207 c63 -63 128 -131 144 -152 16 -21 48 -54 71 -73 23 -19 59 -57 80
-85 38 -51 95 -164 94 -187 0 -7 -9 9 -20 35 -36 89 -99 175 -179 243 -14 12
-47 50 -75 84 -27 34 -111 121 -185 193 -74 72 -115 113 -90 93 25 -21 97 -89
160 -151z m397 -537 c-3 -8 -6 -5 -6 6 -1 11 2 17 5 13 3 -3 4 -12 1 -19z
m-1806 -696 c-7 -2 -18 1 -23 6 -8 8 -4 9 13 5 13 -4 18 -8 10 -11z m-42 -79
c2 -2 0 -3 -6 -3 -6 0 -21 9 -34 21 l-24 20 30 -17 c17 -10 32 -19 34 -21z
m41 -13 c8 -5 11 -10 5 -10 -5 0 -17 5 -25 10 -8 5 -10 10 -5 10 6 0 17 -5 25
-10z m-1997 -2297 c-13 -2 -35 -2 -50 0 -16 2 -5 4 22 4 28 0 40 -2 28 -4z
m3340 0 c-7 -2 -19 -2 -25 0 -7 3 -2 5 12 5 14 0 19 -2 13 -5z m190 0 c-24 -2
-62 -2 -85 0 -24 2 -5 4 42 4 47 0 66 -2 43 -4z m-3730 -10 c-13 -2 -35 -2
-50 0 -16 2 -5 4 22 4 28 0 40 -2 28 -4z m-2898 -2175 c22 -33 48 -74 58 -89
11 -16 17 -29 14 -29 -2 0 -24 29 -47 64 -23 36 -53 76 -67 90 -16 17 -21 26
-12 26 8 0 32 -28 54 -62z m153 -240 c39 -62 121 -175 182 -252 121 -150 190
-244 190 -259 0 -6 -19 16 -42 49 -23 32 -91 120 -151 194 -59 74 -140 186
-179 250 -86 141 -80 130 -75 130 3 0 36 -51 75 -112z m2195 -1395 c-7 -2 -21
-2 -30 0 -10 3 -4 5 12 5 17 0 24 -2 18 -5z m-1684 -489 c14 -12 -19 -1 -35
12 -18 14 -18 14 6 3 14 -6 27 -13 29 -15z"/>
</g>
</svg>
